<svg width="788" height="338" viewBox="0 0 788 338" fill="none" xmlns="http://www.w3.org/2000/svg">
<path fill-rule="evenodd" clip-rule="evenodd" d="M787 338H1.52588e-05V174C-0.00405884 162.242 1.17891 150.494 3.53098 138.953C8.08768 116.689 16.9854 95.5403 29.716 76.7151C48.6017 48.741 75.1937 26.843 106.271 13.6741C116.797 9.22485 127.738 5.82861 138.933 3.53491C150.474 1.18164 162.222 -0.00268555 174 0H787V338Z" fill="#AFAAC1"/>
<path fill-rule="evenodd" clip-rule="evenodd" d="M788 338H16V174C15.9947 163.21 17.0812 152.407 19.2429 141.795C23.4321 121.314 31.6156 101.86 43.326 84.543C60.6927 58.8184 85.147 38.6821 113.726 26.574C123.405 22.4829 133.465 19.3599 143.759 17.251C154.37 15.0874 165.171 13.998 176 14H788V338Z" fill="black"/>
<path fill-rule="evenodd" clip-rule="evenodd" d="M787 338H77V168C76.9697 148.873 82.6825 130.175 93.3987 114.328C103.817 98.8936 118.487 86.811 135.632 79.5442C147.454 74.541 160.163 71.9753 173 72.0002H787V338Z" fill="#1E1E1E"/>
<path fill-rule="evenodd" clip-rule="evenodd" d="M767.8 133H334C306.386 133 284 110.614 284 83C284 55.3857 306.386 33 334 33H767.8C774.39 32.9883 780.917 34.2871 787 36.821V129.179C780.917 131.713 774.39 133.012 767.8 133H767.8Z" fill="black"/>
<path fill-rule="evenodd" clip-rule="evenodd" d="M496 86C496 83.5147 496.879 81.3934 498.636 79.636C500.393 77.8787 502.515 77 505 77H602C604.485 77 606.607 77.8787 608.364 79.636C610.121 81.3934 611 83.5147 611 86C611 88.4853 610.121 90.6066 608.364 92.364C606.607 94.1213 604.485 95 602 95H505C502.515 95 500.393 94.1213 498.636 92.364C496.879 90.6066 496 88.4853 496 86Z" fill="#2B2B29"/>
<circle cx="657" cy="86" r="17" fill="#171717"/>
<circle cx="657" cy="86" r="16" stroke="#2B2B29" stroke-width="2"/>
<circle cx="657" cy="86" r="6" fill="#232A5E"/>
<path fill-rule="evenodd" clip-rule="evenodd" d="M781 303H125C116.163 303 109 295.837 109 287V245C109 236.163 116.163 229 125 229H781C783.426 228.993 785.82 229.543 788 230.608V301.391C785.821 302.456 783.426 303.007 781 303Z" fill="#323234"/>
<path d="M606.169 276.154L611.928 259.509H614.133L606.306 280.974C606.146 281.395 605.941 281.862 605.69 282.375C605.451 282.888 605.132 283.378 604.733 283.845C604.346 284.323 603.856 284.711 603.264 285.007C602.683 285.314 601.971 285.468 601.127 285.468C600.911 285.468 600.632 285.44 600.29 285.383C599.96 285.337 599.72 285.292 599.572 285.246L599.555 283.52C599.681 283.554 599.863 283.583 600.102 283.605C600.341 283.628 600.507 283.64 600.598 283.64C601.338 283.64 601.959 283.514 602.46 283.264C602.973 283.013 603.4 282.637 603.742 282.136C604.084 281.646 604.386 281.031 604.648 280.29L606.169 276.154ZM600.786 259.509L606.682 275.385L607.229 277.521L605.742 278.359L598.564 259.509H600.786ZM615.927 269.045V268.481C615.927 267.137 616.121 265.895 616.508 264.755C616.896 263.616 617.448 262.631 618.166 261.799C618.895 260.967 619.767 260.323 620.781 259.868C621.795 259.401 622.923 259.167 624.165 259.167C625.418 259.167 626.551 259.401 627.565 259.868C628.579 260.323 629.451 260.967 630.18 261.799C630.909 262.631 631.468 263.616 631.855 264.755C632.242 265.895 632.436 267.137 632.436 268.481V269.045C632.436 270.389 632.242 271.631 631.855 272.771C631.468 273.898 630.909 274.878 630.18 275.71C629.462 276.542 628.597 277.191 627.583 277.658C626.569 278.114 625.441 278.342 624.199 278.342C622.945 278.342 621.812 278.114 620.798 277.658C619.784 277.191 618.912 276.542 618.183 275.71C617.454 274.878 616.896 273.898 616.508 272.771C616.121 271.631 615.927 270.389 615.927 269.045ZM617.961 268.481V269.045C617.961 270.059 618.098 271.022 618.371 271.933C618.645 272.833 619.043 273.636 619.567 274.343C620.091 275.038 620.741 275.585 621.516 275.983C622.29 276.382 623.185 276.582 624.199 276.582C625.201 276.582 626.084 276.382 626.848 275.983C627.622 275.585 628.272 275.038 628.796 274.343C629.32 273.636 629.713 272.833 629.975 271.933C630.249 271.022 630.385 270.059 630.385 269.045V268.481C630.385 267.478 630.249 266.527 629.975 265.627C629.713 264.727 629.314 263.924 628.779 263.217C628.255 262.511 627.605 261.953 626.831 261.542C626.056 261.132 625.167 260.927 624.165 260.927C623.162 260.927 622.273 261.132 621.499 261.542C620.735 261.953 620.086 262.511 619.55 263.217C619.026 263.924 618.627 264.727 618.354 265.627C618.092 266.527 617.961 267.478 617.961 268.481ZM648.518 273.728V259.509H650.568V278H648.603L648.518 273.728ZM648.894 270.31L649.953 270.275C649.953 271.438 649.816 272.508 649.543 273.488C649.27 274.468 648.842 275.323 648.261 276.052C647.68 276.781 646.928 277.345 646.005 277.744C645.083 278.142 643.972 278.342 642.673 278.342C641.773 278.342 640.947 278.216 640.195 277.966C639.454 277.704 638.816 277.294 638.281 276.735C637.745 276.177 637.329 275.454 637.033 274.565C636.748 273.676 636.606 272.6 636.606 271.335V259.509H638.64V271.369C638.64 272.36 638.748 273.186 638.964 273.847C639.192 274.508 639.5 275.038 639.887 275.437C640.286 275.835 640.742 276.12 641.254 276.291C641.767 276.462 642.32 276.547 642.912 276.547C644.416 276.547 645.601 276.257 646.467 275.676C647.344 275.095 647.965 274.331 648.33 273.386C648.706 272.429 648.894 271.403 648.894 270.31ZM657.951 262.568V278H655.917V259.509H657.9L657.951 262.568ZM664.497 259.372L664.445 261.252C664.217 261.218 663.995 261.189 663.779 261.167C663.562 261.144 663.329 261.132 663.078 261.132C662.189 261.132 661.409 261.298 660.737 261.628C660.076 261.947 659.518 262.397 659.062 262.978C658.606 263.548 658.259 264.22 658.02 264.995C657.78 265.758 657.644 266.578 657.609 267.456L656.857 267.746C656.857 266.538 656.983 265.416 657.233 264.379C657.484 263.343 657.866 262.437 658.378 261.662C658.903 260.876 659.558 260.266 660.344 259.833C661.141 259.389 662.076 259.167 663.146 259.167C663.409 259.167 663.665 259.19 663.916 259.235C664.178 259.27 664.371 259.315 664.497 259.372ZM669.743 263.457V278H667.709V259.509H669.658L669.743 263.457ZM669.282 267.609L668.376 267.097C668.444 266.003 668.667 264.978 669.042 264.021C669.418 263.063 669.925 262.22 670.563 261.491C671.213 260.762 671.971 260.192 672.836 259.782C673.714 259.372 674.682 259.167 675.742 259.167C676.665 259.167 677.491 259.292 678.22 259.543C678.949 259.794 679.57 260.192 680.083 260.739C680.595 261.286 680.983 261.987 681.245 262.841C681.518 263.696 681.655 264.738 681.655 265.969V278H679.604V265.952C679.604 264.676 679.427 263.679 679.074 262.961C678.721 262.232 678.22 261.713 677.57 261.406C676.921 261.098 676.152 260.944 675.263 260.944C674.283 260.944 673.423 261.161 672.683 261.594C671.953 262.015 671.338 262.568 670.837 263.251C670.347 263.924 669.971 264.647 669.709 265.422C669.447 266.185 669.305 266.914 669.282 267.609ZM698.198 274.685V265.148C698.198 264.271 698.015 263.514 697.651 262.875C697.286 262.237 696.751 261.748 696.044 261.406C695.338 261.064 694.466 260.893 693.43 260.893C692.473 260.893 691.618 261.064 690.866 261.406C690.126 261.736 689.539 262.186 689.106 262.756C688.684 263.314 688.474 263.935 688.474 264.619L686.423 264.602C686.423 263.907 686.594 263.234 686.936 262.585C687.277 261.936 687.762 261.354 688.388 260.842C689.015 260.329 689.761 259.925 690.627 259.628C691.504 259.321 692.467 259.167 693.515 259.167C694.837 259.167 695.999 259.389 697.001 259.833C698.015 260.278 698.807 260.944 699.377 261.833C699.947 262.722 700.231 263.838 700.231 265.183V274.121C700.231 274.759 700.277 275.419 700.368 276.103C700.471 276.787 700.613 277.351 700.795 277.795V278H698.625C698.488 277.59 698.38 277.077 698.3 276.462C698.232 275.835 698.198 275.243 698.198 274.685ZM698.676 267.233L698.71 268.806H694.694C693.646 268.806 692.706 268.903 691.875 269.096C691.054 269.278 690.359 269.552 689.79 269.917C689.22 270.27 688.781 270.697 688.474 271.198C688.177 271.7 688.029 272.269 688.029 272.907C688.029 273.568 688.194 274.172 688.525 274.719C688.867 275.266 689.345 275.704 689.96 276.035C690.587 276.354 691.328 276.513 692.182 276.513C693.321 276.513 694.324 276.302 695.19 275.881C696.067 275.459 696.791 274.907 697.36 274.223C697.93 273.54 698.312 272.793 698.505 271.984L699.394 273.164C699.246 273.733 698.972 274.32 698.574 274.924C698.186 275.516 697.679 276.075 697.053 276.599C696.426 277.111 695.686 277.533 694.831 277.863C693.988 278.182 693.031 278.342 691.96 278.342C690.752 278.342 689.698 278.114 688.798 277.658C687.91 277.202 687.215 276.582 686.713 275.795C686.223 274.998 685.979 274.098 685.979 273.095C685.979 272.184 686.172 271.369 686.56 270.651C686.947 269.922 687.505 269.307 688.234 268.806C688.975 268.293 689.864 267.906 690.9 267.644C691.949 267.37 693.122 267.233 694.421 267.233H698.676ZM707.648 263.337V278H705.598V259.509H707.563L707.648 263.337ZM707.272 267.609L706.281 267.097C706.35 266.003 706.555 264.978 706.896 264.021C707.25 263.063 707.74 262.22 708.366 261.491C708.993 260.762 709.745 260.192 710.622 259.782C711.499 259.372 712.496 259.167 713.613 259.167C714.513 259.167 715.327 259.292 716.057 259.543C716.797 259.782 717.424 260.164 717.937 260.688C718.461 261.201 718.865 261.873 719.15 262.705C719.435 263.536 719.577 264.533 719.577 265.695V278H717.543V265.764C717.543 264.533 717.35 263.57 716.962 262.875C716.586 262.181 716.057 261.685 715.373 261.389C714.701 261.092 713.92 260.944 713.032 260.944C711.984 260.944 711.095 261.161 710.366 261.594C709.648 262.015 709.061 262.568 708.605 263.251C708.161 263.924 707.831 264.647 707.614 265.422C707.398 266.185 707.284 266.914 707.272 267.609ZM719.56 266.003L718.193 266.037C718.25 265.137 718.455 264.277 718.808 263.457C719.173 262.636 719.668 261.907 720.295 261.269C720.922 260.62 721.668 260.107 722.534 259.731C723.411 259.355 724.396 259.167 725.49 259.167C726.447 259.167 727.302 259.298 728.054 259.56C728.806 259.811 729.438 260.215 729.951 260.773C730.475 261.32 730.874 262.021 731.147 262.875C731.42 263.73 731.557 264.755 731.557 265.952V278H729.506V265.935C729.506 264.624 729.313 263.61 728.925 262.893C728.549 262.163 728.025 261.656 727.353 261.372C726.681 261.087 725.895 260.944 724.995 260.944C724.106 260.956 723.326 261.121 722.653 261.44C721.981 261.748 721.417 262.158 720.961 262.67C720.517 263.172 720.175 263.713 719.936 264.294C719.708 264.875 719.583 265.445 719.56 266.003ZM743.896 278.342C742.688 278.342 741.577 278.12 740.563 277.675C739.561 277.231 738.684 276.604 737.932 275.795C737.191 274.986 736.616 274.029 736.206 272.924C735.807 271.808 735.607 270.589 735.607 269.267V268.532C735.607 267.108 735.818 265.821 736.24 264.67C736.661 263.519 737.242 262.534 737.983 261.713C738.723 260.893 739.567 260.266 740.512 259.833C741.469 259.389 742.472 259.167 743.52 259.167C744.694 259.167 745.736 259.378 746.647 259.799C747.559 260.209 748.322 260.796 748.938 261.56C749.564 262.312 750.037 263.206 750.356 264.243C750.675 265.268 750.834 266.402 750.834 267.644V268.891H736.838V267.148H748.801V266.909C748.778 265.872 748.567 264.903 748.168 264.003C747.781 263.092 747.2 262.351 746.425 261.782C745.651 261.212 744.682 260.927 743.52 260.927C742.654 260.927 741.857 261.11 741.127 261.474C740.41 261.839 739.789 262.363 739.265 263.046C738.752 263.719 738.353 264.522 738.068 265.456C737.795 266.379 737.658 267.404 737.658 268.532V269.267C737.658 270.292 737.806 271.25 738.103 272.138C738.41 273.015 738.843 273.79 739.401 274.462C739.971 275.135 740.643 275.659 741.418 276.035C742.193 276.411 743.047 276.599 743.981 276.599C745.075 276.599 746.044 276.399 746.887 276C747.73 275.59 748.487 274.947 749.16 274.069L750.441 275.061C750.043 275.653 749.541 276.2 748.938 276.701C748.345 277.202 747.633 277.601 746.801 277.897C745.97 278.194 745.001 278.342 743.896 278.342ZM754.68 276.752C754.68 276.354 754.805 276.018 755.056 275.744C755.318 275.459 755.671 275.317 756.115 275.317C756.571 275.317 756.93 275.454 757.192 275.727C757.454 276 757.585 276.342 757.585 276.752C757.585 277.14 757.454 277.47 757.192 277.744C756.93 278.017 756.571 278.154 756.115 278.154C755.671 278.154 755.318 278.017 755.056 277.744C754.805 277.47 754.68 277.14 754.68 276.752ZM768.369 273.676L772.829 259.509H774.265L773.41 263.32L768.745 278H767.309L768.369 273.676ZM763.737 259.509L767.651 273.762L768.488 278H767.001L761.635 259.509H763.737ZM779.819 273.71L783.63 259.509H785.732L780.366 278H778.896L779.819 273.71ZM774.555 259.509L778.947 273.557L780.058 278H778.623L773.854 263.303L773.051 259.509H774.555Z" fill="#84E575"/>
<path d="M157.877 272.361H150.431L148.759 277H146.342L153.129 259.227H155.18L161.979 277H159.574L157.877 272.361ZM151.139 270.433H157.182L154.154 262.12L151.139 270.433ZM174.186 272.361H166.74L165.067 277H162.65L169.438 259.227H171.488L178.288 277H175.883L174.186 272.361ZM167.448 270.433H173.49L170.463 262.12L167.448 270.433Z" fill="white"/>
<path d="M197.353 133.475C196.249 134.559 194.96 135.101 193.485 135.101C191.601 135.101 190.092 134.456 188.959 133.167C187.826 131.868 187.26 130.12 187.26 127.923C187.26 126.526 187.562 125.247 188.168 124.085C188.783 122.913 189.638 122.005 190.731 121.36C191.825 120.706 193.056 120.379 194.423 120.379C195.829 120.379 197.079 120.73 198.173 121.434C199.267 122.137 200.116 123.147 200.722 124.466C201.327 125.784 201.635 127.293 201.645 128.992V130.56C201.645 134.114 200.761 136.907 198.993 138.938C197.226 140.97 194.721 142.054 191.479 142.19L190.438 142.205V138.675L191.376 138.66C195.058 138.494 197.05 136.766 197.353 133.475ZM194.525 131.863C195.209 131.863 195.795 131.688 196.283 131.336C196.781 130.984 197.157 130.56 197.411 130.062V128.318C197.411 126.883 197.138 125.77 196.591 124.979C196.044 124.188 195.312 123.792 194.394 123.792C193.544 123.792 192.846 124.183 192.299 124.964C191.752 125.735 191.479 126.707 191.479 127.879C191.479 129.041 191.742 129.998 192.27 130.75C192.807 131.492 193.559 131.863 194.525 131.863ZM205.058 139.92C205.058 139.246 205.282 138.699 205.731 138.279C206.19 137.859 206.762 137.649 207.445 137.649C208.139 137.649 208.71 137.859 209.159 138.279C209.618 138.699 209.848 139.246 209.848 139.92C209.848 140.584 209.623 141.126 209.174 141.546C208.725 141.956 208.148 142.161 207.445 142.161C206.752 142.161 206.181 141.956 205.731 141.546C205.282 141.126 205.058 140.584 205.058 139.92ZM205.058 127.923C205.058 127.249 205.282 126.702 205.731 126.282C206.19 125.862 206.762 125.652 207.445 125.652C208.139 125.652 208.71 125.862 209.159 126.282C209.618 126.702 209.848 127.249 209.848 127.923C209.848 128.587 209.623 129.129 209.174 129.549C208.725 129.959 208.148 130.164 207.445 130.164C206.752 130.164 206.181 129.959 205.731 129.549C205.282 129.129 205.058 128.587 205.058 127.923ZM225.668 133.973H228.085V137.386H225.668V142H221.435V137.386H212.689L212.499 134.72L221.391 120.672H225.668V133.973ZM216.718 133.973H221.435V126.443L221.156 126.927L216.718 133.973ZM240.653 142H236.42V125.682L231.366 127.249V123.807L240.199 120.643H240.653V142Z" fill="white"/>
<path fill-rule="evenodd" clip-rule="evenodd" d="M416.559 262.829V260.029C416.56 257.328 415.12 254.832 412.781 253.482C410.442 252.131 407.56 252.131 405.222 253.482C402.883 254.833 401.443 257.329 401.444 260.03V262.829H398.959V269.488C398.959 275.034 403.454 279.529 409 279.529C414.545 279.529 419.041 275.034 419.041 269.488V262.829H416.559ZM409.794 272.229V274.701H408.207V272.231C406.811 271.836 405.92 270.471 406.12 269.034C406.32 267.597 407.549 266.527 409 266.527C410.45 266.527 411.679 267.597 411.879 269.034C412.078 270.471 411.188 271.836 409.792 272.231L409.794 272.229ZM414.973 262.829H403.028V260.029C403.028 256.731 405.702 254.057 409 254.057C412.298 254.057 414.972 256.731 414.972 260.029L414.973 262.829Z" fill="#80E770"/>
</svg>
